<svg version="1.1" id="Layer_1" xmlns="http://www.w3.org/2000/svg" xmlns:xlink="http://www.w3.org/1999/xlink" x="0px" y="0px"
	 width="100%" viewBox="0 0 200 200" enable-background="new 0 0 200 200" xml:space="preserve">
<path fill="#FDFCFA" opacity="1.000000" stroke="none" 
	d="
M131.000000,201.000000 
	C87.715309,201.000000 44.430626,201.000000 1.072969,201.000000 
	C1.072969,134.456894 1.072969,67.913673 1.072969,1.000000 
	C20.686012,1.000000 40.374348,1.000000 60.576714,1.466768 
	C61.090744,8.470554 61.090744,15.007572 61.090744,22.002600 
	C63.705067,21.719934 65.266258,21.551134 67.712608,21.286631 
	C67.119339,14.259057 66.559669,7.629529 66.000000,1.000000 
	C67.066673,1.000000 68.133339,1.000000 69.583923,1.468341 
	C69.967842,8.186539 69.967842,14.436395 69.967842,21.208052 
	C75.974167,20.666523 81.185104,20.196703 87.000000,19.672432 
	C87.000000,13.217800 87.000000,7.108900 87.000000,1.000000 
	C124.955261,1.000000 162.910522,1.000000 200.932892,1.000000 
	C200.932892,67.543381 200.932892,134.086853 200.932892,201.000000 
	C181.980698,201.000000 162.959015,201.000000 143.681824,200.720490 
	C145.179199,199.055038 149.189682,199.243729 147.697113,196.173264 
	C142.726257,196.173264 138.339615,196.629349 134.100052,196.035446 
	C130.408569,195.518326 126.940269,193.563568 123.263123,192.730713 
	C121.022194,192.223145 118.572563,192.637039 116.216682,192.637039 
	C116.210823,193.006516 116.204971,193.375977 116.199120,193.745453 
	C121.132744,196.163635 126.066376,198.581818 131.000000,201.000000 
M104.706284,97.499969 
	C104.706284,128.599136 104.706284,159.698318 104.706284,191.617844 
	C107.004906,190.864670 108.550919,190.465744 110.012939,189.863052 
	C136.754242,178.839233 163.472687,167.759750 190.238907,156.796906 
	C192.875366,155.717056 194.228989,154.337997 194.334152,151.365829 
	C194.757675,139.395264 195.389481,127.432228 195.901215,115.464569 
	C196.846771,93.351425 197.785858,71.237930 198.667648,49.122192 
	C198.824142,45.197338 198.689880,41.260895 198.689880,36.924946 
	C196.308121,37.058815 194.331787,37.072693 192.379013,37.294285 
	C164.619461,40.444324 136.870651,43.692005 109.096283,46.704437 
	C105.687737,47.074127 104.610756,48.148766 104.644730,51.537216 
	C104.794930,66.523499 104.707352,81.512154 104.706284,97.499969 
M54.271080,42.309799 
	C37.318390,40.452995 20.365704,38.596188 3.506817,36.749657 
	C3.249079,37.658901 3.074744,37.969585 3.087385,38.272469 
	C4.670202,76.198090 6.314651,114.121292 7.772090,152.051682 
	C7.889075,155.096268 9.396816,155.959869 11.677984,156.892395 
	C33.984928,166.011139 56.265331,175.194748 78.560539,184.342255 
	C84.762169,186.886703 90.987846,189.372574 97.435471,191.979523 
	C97.435471,143.320267 97.435471,95.399643 97.435471,47.185818 
	C83.228745,45.595264 69.197319,44.024338 54.271080,42.309799 
M162.624084,34.023304 
	C173.392456,32.912830 184.160828,31.802353 194.929199,30.691875 
	C175.777374,28.718344 156.632492,27.340389 137.485641,25.990295 
	C127.233803,25.267410 116.977715,24.604767 106.725433,23.887886 
	C103.927956,23.692272 101.104607,22.994843 98.349075,23.218130 
	C84.490036,24.341154 70.659561,25.818407 56.799374,26.924805 
	C45.562119,27.821825 34.292473,28.306383 23.046907,29.109865 
	C19.545095,29.360065 16.075001,30.054207 12.418905,30.569277 
	C12.818525,31.214361 12.952712,31.668800 13.132785,31.687777 
	C26.954674,33.144234 40.779896,34.569103 54.605488,35.990349 
	C63.657978,36.920929 72.697517,38.025124 81.768448,38.714989 
	C90.299606,39.363804 98.866463,39.908623 107.413551,39.854755 
	C113.171631,39.818462 118.919914,38.637108 124.677391,38.012260 
	C137.018646,36.672878 149.363022,35.362167 162.624084,34.023304 
M37.187763,23.894812 
	C38.501732,22.988808 40.893478,22.147982 40.952854,21.166109 
	C41.309238,15.272904 41.129669,9.347288 41.129669,3.318164 
	C34.045456,3.318164 27.702929,3.318164 21.238121,3.318164 
	C21.238121,10.640512 21.238121,17.517241 21.238121,24.859877 
	C26.485470,24.532492 31.373268,24.227539 37.187763,23.894812 
M18.852596,18.348164 
	C18.852596,13.410118 18.852596,8.472072 18.852596,3.413964 
	C16.035410,3.413964 14.312765,3.413964 12.201267,3.413964 
	C12.562381,10.989704 12.906159,18.201757 13.269089,25.815592 
	C15.349859,25.496996 16.941319,25.253323 18.860554,24.959459 
	C18.860554,22.887173 18.860554,21.087719 18.852596,18.348164 
M144.554825,187.798935 
	C137.146683,182.709412 130.883072,186.667023 124.109512,190.163193 
	C129.855484,194.071762 135.883652,194.620422 142.015411,194.049881 
	C146.565323,193.626526 147.369598,191.822830 144.554825,187.798935 
M171.320053,175.140442 
	C174.308609,176.131653 177.235916,177.446014 180.302170,178.027374 
	C183.680481,178.667908 187.223602,179.050171 190.623352,178.745697 
	C192.788605,178.551804 196.114319,178.142685 195.401398,173.759583 
	C187.268570,176.562500 179.956345,174.150742 172.539307,171.845749 
	C170.493423,171.209930 168.018967,171.953293 165.741150,172.063828 
	C165.778931,172.533310 165.816727,173.002792 165.854507,173.472275 
	C167.425430,173.965500 168.996368,174.458710 171.320053,175.140442 
M176.325989,170.664200 
	C187.460785,174.157089 190.823883,174.041641 194.586411,170.037323 
	C188.888809,164.624435 180.606308,164.210434 174.950821,169.109665 
	C174.881973,169.169312 175.422867,169.932816 176.325989,170.664200 
z"/>
<path fill="#AAABAF" opacity="1.000000" stroke="none" 
	d="
M86.532394,1.000000 
	C87.000000,7.108900 87.000000,13.217800 87.000000,19.672432 
	C81.185104,20.196703 75.974167,20.666523 69.967842,21.208052 
	C69.967842,14.436395 69.967842,8.186539 69.983917,1.468341 
	C75.354927,1.000000 80.709862,1.000000 86.532394,1.000000 
z"/>
<path fill="#8C8D8E" opacity="1.000000" stroke="none" 
	d="
M131.460632,201.000000 
	C126.066376,198.581818 121.132744,196.163635 116.199120,193.745453 
	C116.204971,193.375977 116.210823,193.006516 116.216682,192.637039 
	C118.572563,192.637039 121.022194,192.223145 123.263123,192.730713 
	C126.940269,193.563568 130.408569,195.518326 134.100052,196.035446 
	C138.339615,196.629349 142.726257,196.173264 147.697113,196.173264 
	C149.189682,199.243729 145.179199,199.055038 143.213165,200.720490 
	C139.307098,201.000000 135.614182,201.000000 131.460632,201.000000 
z"/>
<path fill="#8B8C8E" opacity="1.000000" stroke="none" 
	d="
M65.583336,1.000000 
	C66.559669,7.629529 67.119339,14.259057 67.712608,21.286631 
	C65.266258,21.551134 63.705067,21.719934 61.090744,22.002600 
	C61.090744,15.007572 61.090744,8.470554 61.045372,1.466768 
	C62.388889,1.000000 63.777782,1.000000 65.583336,1.000000 
z"/>
<path fill="#E5B325" opacity="1.000000" stroke="none" 
	d="
M104.706070,96.999962 
	C104.707352,81.512154 104.794930,66.523499 104.644730,51.537216 
	C104.610756,48.148766 105.687737,47.074127 109.096283,46.704437 
	C136.870651,43.692005 164.619461,40.444324 192.379013,37.294285 
	C194.331787,37.072693 196.308121,37.058815 198.689880,36.924946 
	C198.689880,41.260895 198.824142,45.197338 198.667648,49.122192 
	C197.785858,71.237930 196.846771,93.351425 195.901215,115.464569 
	C195.389481,127.432228 194.757675,139.395264 194.334152,151.365829 
	C194.228989,154.337997 192.875366,155.717056 190.238907,156.796906 
	C163.472687,167.759750 136.754242,178.839233 110.012939,189.863052 
	C108.550919,190.465744 107.004906,190.864670 104.706284,191.617844 
	C104.706284,159.698318 104.706284,128.599136 104.706070,96.999962 
M142.497223,114.158791 
	C143.315872,118.326744 144.646774,122.470718 144.843185,126.667786 
	C145.216537,134.645554 144.940125,142.653687 144.935211,150.649216 
	C144.933029,154.224884 144.934845,157.800537 144.934845,162.144943 
	C151.079102,159.770355 156.404648,157.932404 161.493591,155.582123 
	C162.684311,155.032227 163.642349,152.779449 163.730804,151.253510 
	C164.077499,145.272949 163.850525,139.259598 164.180908,133.277451 
	C164.591385,125.845131 163.988297,117.990761 166.230606,111.102425 
	C170.800629,97.063362 177.001404,83.556473 182.493881,69.815773 
	C184.920410,63.745239 187.258209,57.639236 190.051254,50.486664 
	C183.950699,51.405411 178.992050,51.865280 174.200287,53.018543 
	C172.347580,53.464439 170.134277,55.146713 169.362808,56.845798 
	C166.893112,62.284958 165.059006,68.010109 162.908218,73.597404 
	C160.816711,79.030739 158.637268,84.430222 156.052582,90.967072 
	C151.489563,79.977417 147.556396,70.288055 143.377640,60.705795 
	C142.835449,59.462475 140.923309,57.850945 139.820145,57.973972 
	C132.432526,58.797871 125.092171,60.045616 117.022278,61.263657 
	C125.578735,79.070679 133.847672,96.279335 142.497223,114.158791 
z"/>
<path fill="#272425" opacity="1.000000" stroke="none" 
	d="
M54.718491,42.381607 
	C69.197319,44.024338 83.228745,45.595264 97.435471,47.185818 
	C97.435471,95.399643 97.435471,143.320267 97.435471,191.979523 
	C90.987846,189.372574 84.762169,186.886703 78.560539,184.342255 
	C56.265331,175.194748 33.984928,166.011139 11.677984,156.892395 
	C9.396816,155.959869 7.889075,155.096268 7.772090,152.051682 
	C6.314651,114.121292 4.670202,76.198090 3.087385,38.272469 
	C3.074744,37.969585 3.249079,37.658901 3.506817,36.749657 
	C20.365704,38.596188 37.318390,40.452995 54.718491,42.381607 
M84.592438,62.263939 
	C76.851868,60.589577 69.111305,58.915218 61.322586,57.230446 
	C61.322586,70.148849 61.240444,82.211464 61.355423,94.272202 
	C61.417839,100.819290 61.411606,100.932915 54.899609,98.274155 
	C54.201607,98.333176 53.503601,98.392197 52.053150,98.319580 
	C50.366104,97.836281 48.679058,97.352989 46.890678,96.259384 
	C46.199230,96.313179 45.507786,96.366982 44.091255,96.317963 
	C42.728439,95.890381 41.365627,95.462807 39.870506,94.266167 
	C37.920868,93.476074 35.971226,92.685974 33.825737,91.256241 
	C33.744080,89.900322 33.662426,88.544411 34.302956,86.672989 
	C34.502769,81.600601 34.751614,76.528885 34.821781,71.454704 
	C34.828346,70.980087 33.705879,70.489868 32.911018,69.115402 
	C32.791599,65.809853 32.672180,62.504311 33.217522,58.796185 
	C32.834728,57.199062 32.451935,55.601944 31.500154,53.428204 
	C25.517387,52.601028 19.534620,51.773853 13.367603,50.921204 
	C14.575415,82.481354 15.740329,113.251610 16.979927,144.018860 
	C17.026236,145.168198 17.506741,146.985565 18.280346,147.309921 
	C23.677921,149.572891 29.206308,151.523849 34.608158,153.543137 
	C34.608158,139.968918 34.608158,127.098785 34.608158,113.800171 
	C42.273342,116.093460 49.633522,118.723312 57.205322,120.394150 
	C61.480770,121.337593 62.072285,123.363533 62.092976,127.102562 
	C62.154694,138.255997 62.532814,149.409439 62.947475,160.556931 
	C63.000652,161.986603 63.629150,164.214127 64.622223,164.657043 
	C71.221329,167.600189 77.992371,170.157822 84.685349,172.831985 
	C84.685349,144.597733 84.671097,116.790100 84.694641,88.982506 
	C84.701111,81.333923 84.820480,73.685432 85.442497,65.686020 
	C85.256042,64.778397 85.069595,63.870773 84.592438,62.263939 
z"/>
<path fill="#D3D4D5" opacity="1.000000" stroke="none" 
	d="
M162.165100,34.031509 
	C149.363022,35.362167 137.018646,36.672878 124.677391,38.012260 
	C118.919914,38.637108 113.171631,39.818462 107.413551,39.854755 
	C98.866463,39.908623 90.299606,39.363804 81.768448,38.714989 
	C72.697517,38.025124 63.657978,36.920929 54.605488,35.990349 
	C40.779896,34.569103 26.954674,33.144234 13.132785,31.687777 
	C12.952712,31.668800 12.818525,31.214361 12.418905,30.569277 
	C16.075001,30.054207 19.545095,29.360065 23.046907,29.109865 
	C34.292473,28.306383 45.562119,27.821825 56.799374,26.924805 
	C70.659561,25.818407 84.490036,24.341154 98.349075,23.218130 
	C101.104607,22.994843 103.927956,23.692272 106.725433,23.887886 
	C116.977715,24.604767 127.233803,25.267410 137.485641,25.990295 
	C156.632492,27.340389 175.777374,28.718344 194.929199,30.691875 
	C184.160828,31.802353 173.392456,32.912830 162.165100,34.031509 
z"/>
<path fill="#A9AAAE" opacity="1.000000" stroke="none" 
	d="
M36.724415,23.908699 
	C31.373268,24.227539 26.485470,24.532492 21.238121,24.859877 
	C21.238121,17.517241 21.238121,10.640512 21.238121,3.318164 
	C27.702929,3.318164 34.045456,3.318164 41.129669,3.318164 
	C41.129669,9.347288 41.309238,15.272904 40.952854,21.166109 
	C40.893478,22.147982 38.501732,22.988808 36.724415,23.908699 
z"/>
<path fill="#898A8C" opacity="1.000000" stroke="none" 
	d="
M18.856575,18.818214 
	C18.860554,21.087719 18.860554,22.887173 18.860554,24.959459 
	C16.941319,25.253323 15.349859,25.496996 13.269089,25.815592 
	C12.906159,18.201757 12.562381,10.989704 12.201267,3.413964 
	C14.312765,3.413964 16.035410,3.413964 18.852596,3.413964 
	C18.852596,8.472072 18.852596,13.410118 18.856575,18.818214 
z"/>
<path fill="#ACAEB1" opacity="1.000000" stroke="none" 
	d="
M144.879669,187.990692 
	C147.369598,191.822830 146.565323,193.626526 142.015411,194.049881 
	C135.883652,194.620422 129.855484,194.071762 124.109512,190.163193 
	C130.883072,186.667023 137.146683,182.709412 144.879669,187.990692 
z"/>
<path fill="#8E8F91" opacity="1.000000" stroke="none" 
	d="
M170.943680,175.046188 
	C168.996368,174.458710 167.425430,173.965500 165.854507,173.472275 
	C165.816727,173.002792 165.778931,172.533310 165.741150,172.063828 
	C168.018967,171.953293 170.493423,171.209930 172.539307,171.845749 
	C179.956345,174.150742 187.268570,176.562500 195.401398,173.759583 
	C196.114319,178.142685 192.788605,178.551804 190.623352,178.745697 
	C187.223602,179.050171 183.680481,178.667908 180.302170,178.027374 
	C177.235916,177.446014 174.308609,176.131653 170.943680,175.046188 
z"/>
<path fill="#AEB0B2" opacity="1.000000" stroke="none" 
	d="
M176.002563,170.515976 
	C175.422867,169.932816 174.881973,169.169312 174.950821,169.109665 
	C180.606308,164.210434 188.888809,164.624435 194.586411,170.037323 
	C190.823883,174.041641 187.460785,174.157089 176.002563,170.515976 
z"/>
<path fill="#FEFDF6" opacity="1.000000" stroke="none" 
	d="
M142.306915,113.823395 
	C133.847672,96.279335 125.578735,79.070679 117.022278,61.263657 
	C125.092171,60.045616 132.432526,58.797871 139.820145,57.973972 
	C140.923309,57.850945 142.835449,59.462475 143.377640,60.705795 
	C147.556396,70.288055 151.489563,79.977417 156.052582,90.967072 
	C158.637268,84.430222 160.816711,79.030739 162.908218,73.597404 
	C165.059006,68.010109 166.893112,62.284958 169.362808,56.845798 
	C170.134277,55.146713 172.347580,53.464439 174.200287,53.018543 
	C178.992050,51.865280 183.950699,51.405411 190.051254,50.486664 
	C187.258209,57.639236 184.920410,63.745239 182.493881,69.815773 
	C177.001404,83.556473 170.800629,97.063362 166.230606,111.102425 
	C163.988297,117.990761 164.591385,125.845131 164.180908,133.277451 
	C163.850525,139.259598 164.077499,145.272949 163.730804,151.253510 
	C163.642349,152.779449 162.684311,155.032227 161.493591,155.582123 
	C156.404648,157.932404 151.079102,159.770355 144.934845,162.144943 
	C144.934845,157.800537 144.933029,154.224884 144.935211,150.649216 
	C144.940125,142.653687 145.216537,134.645554 144.843185,126.667786 
	C144.646774,122.470718 143.315872,118.326744 142.306915,113.823395 
z"/>
<path fill="#FBFBFB" opacity="1.000000" stroke="none" 
	d="
M33.580772,87.188492 
	C33.662426,88.544411 33.744080,89.900322 33.843918,91.908424 
	C35.909004,93.385483 37.955910,94.210350 40.002815,95.035225 
	C41.365627,95.462807 42.728439,95.890381 44.656616,96.588539 
	C45.811985,96.862640 46.402000,96.866165 46.992012,96.869690 
	C48.679058,97.352989 50.366104,97.836281 52.639580,98.596359 
	C53.815170,98.880341 54.404331,98.887543 54.993488,98.894745 
	C61.411606,100.932915 61.417839,100.819290 61.355423,94.272202 
	C61.240444,82.211464 61.322586,70.148849 61.322586,57.230446 
	C69.111305,58.915218 76.851868,60.589577 84.638702,62.991173 
	C84.752655,64.491241 84.820351,65.264069 84.888046,66.036903 
	C84.820480,73.685432 84.701111,81.333923 84.694641,88.982506 
	C84.671097,116.790100 84.685349,144.597733 84.685349,172.831985 
	C77.992371,170.157822 71.221329,167.600189 64.622223,164.657043 
	C63.629150,164.214127 63.000652,161.986603 62.947475,160.556931 
	C62.532814,149.409439 62.154694,138.255997 62.092976,127.102562 
	C62.072285,123.363533 61.480770,121.337593 57.205322,120.394150 
	C49.633522,118.723312 42.273342,116.093460 34.608158,113.800171 
	C34.608158,127.098785 34.608158,139.968918 34.608158,153.543137 
	C29.206308,151.523849 23.677921,149.572891 18.280346,147.309921 
	C17.506741,146.985565 17.026236,145.168198 16.979927,144.018860 
	C15.740329,113.251610 14.575415,82.481354 13.367603,50.921204 
	C19.534620,51.773853 25.517387,52.601028 31.749470,54.100777 
	C32.183441,56.248486 32.368099,57.723625 32.552757,59.198765 
	C32.672180,62.504311 32.791599,65.809853 32.943954,70.023849 
	C33.178185,76.351028 33.379478,81.769760 33.580772,87.188492 
z"/>
<path fill="#1C191A" opacity="1.000000" stroke="none" 
	d="
M33.941864,86.930740 
	C33.379478,81.769760 33.178185,76.351028 33.042255,70.469597 
	C33.705879,70.489868 34.828346,70.980087 34.821781,71.454704 
	C34.751614,76.528885 34.502769,81.600601 33.941864,86.930740 
z"/>
<path fill="#1C191A" opacity="1.000000" stroke="none" 
	d="
M39.936661,94.650696 
	C37.955910,94.210350 35.909004,93.385483 33.941841,92.228241 
	C35.971226,92.685974 37.920868,93.476074 39.936661,94.650696 
z"/>
<path fill="#1C191A" opacity="1.000000" stroke="none" 
	d="
M32.885139,58.997475 
	C32.368099,57.723625 32.183441,56.248486 32.033962,54.389084 
	C32.451935,55.601944 32.834728,57.199062 32.885139,58.997475 
z"/>
<path fill="#1C191A" opacity="1.000000" stroke="none" 
	d="
M46.941345,96.564545 
	C46.402000,96.866165 45.811985,96.862640 45.019157,96.639954 
	C45.507786,96.366982 46.199230,96.313179 46.941345,96.564545 
z"/>
<path fill="#1C191A" opacity="1.000000" stroke="none" 
	d="
M54.946548,98.584450 
	C54.404331,98.887543 53.815170,98.880341 53.015808,98.662170 
	C53.503601,98.392197 54.201607,98.333176 54.946548,98.584450 
z"/>
<path fill="#0C0A0B" opacity="1.000000" stroke="none" 
	d="
M85.165268,65.861465 
	C84.820351,65.264069 84.752655,64.491241 84.784058,63.340778 
	C85.069595,63.870773 85.256042,64.778397 85.165268,65.861465 
z"/>
</svg>